# xmcd CD database file
#
# Track frame offsets:
#	150
#	13563
#	34463
#	62449
#	87480
#	105452
#	114842
#	137281
#	158497
#	178382
#	223575
#
# Disc length: 3285 seconds
#
# Revision: 0
# Processed by: cddbd v1.5.2PL0 Copyright (c) Steve Scherf et al.
# Submitted via: CDex 1.50
#
DISCID=880cd30b
DTITLE=Jean-Christophe Cholet and Matthieu Michel - Whispers_JC Cholet, M Michel, D Ithursarry, R Lopez
DYEAR=2014
DGENRE=Jazz
TTITLE0=1. Fair (M Michel and JC Cholet)
TTITLE1=2.  He's gone (Charlie Mariano)
TTITLE2=3. Rêve (JC Cholet)
TTITLE3=4. Zemer (Marc Lavry)
TTITLE4=5. Junction point (JC Cholet)
TTITLE5=6. Noctambule (JC Cholet)
TTITLE6=7. Diss (JC Cholet)
TTITLE7=8. The Fairground (JC Cholet)
TTITLE8=9. Onnance (M Michel and JC Cholet)
TTITLE9=10. Le tour de Marius (JC Cholet)
TTITLE10=11. Norfolk Song
EXTD=YEAR: 2014
EXTT0=
EXTT1=
EXTT2=
EXTT3=
EXTT4=
EXTT5=
EXTT6=
EXTT7=
EXTT8=
EXTT9=
EXTT10=
PLAYORDER=
